<mxfile host="app.diagrams.net" modified="2023-05-30T01:52:02.698Z" agent="Mozilla/5.0 (Macintosh; Intel Mac OS X 10_15_7) AppleWebKit/537.36 (KHTML, like Gecko) Chrome/113.0.0.0 Safari/537.36" version="21.3.5" etag="e4GBu9Caic8lyLlKrlo_" type="github">
  <diagram name="第 1 页" id="gz4SnEZsWKSaeQgla4mq">
    <mxGraphModel>
      <root>
        <mxCell id="0" />
        <mxCell id="1" parent="0" />
      </root>
    </mxGraphModel>
  </diagram>
</mxfile>
